<svg id="intro-logo" xmlns="http://www.w3.org/2000/svg" xml:space="preserve" version="1.1" style="shape-rendering:geometricPrecision; text-rendering:geometricPrecision; image-rendering:optimizeQuality; fill-rule:evenodd; clip-rule:evenodd" viewBox="0 0 6000 2300" xmlns:xlink="http://www.w3.org/1999/xlink">
    <g style="fill:#fff">
        <path class="fil0" d="M1710 425c15,18 26,32 37,56l-203 29 166 -85zm2636 341c-42,-37 -94,-75 -136,-112 -92,-79 -183,-150 -275,-228 -26,-22 -117,-103 -138,-109 -42,-12 -1087,-94 -1147,-97 17,33 177,191 192,224l-1056 -444c3,20 21,94 20,141 0,7 -267,191 -269,192l-43 94c-40,36 -94,66 -140,99 -164,119 -164,80 -43,220 21,25 17,37 50,46l411 67c93,15 245,24 313,69 41,28 330,209 347,236l261 696c30,81 82,201 102,283l-96 -32c-25,31 -78,111 -91,145 453,0 418,42 482,-130 107,-293 101,-196 76,-487 -9,-105 -32,-267 -25,-368l108 302 442 18c8,-16 125,-221 149,-244 -35,303 -96,204 75,432l245 339 -190 -30 -73 156 456 4c23,-89 133,-290 129,-367 -12,-289 -43,-646 -62,-944 -9,-132 7,-101 -74,-171z"></path>
        <path class="fil0" d="M2198 1126c3,490 -29,384 82,812 25,96 43,140 -13,229l-95 -37c-31,21 -78,84 -101,117l442 -4c27,-48 50,-89 78,-138 27,-50 65,-81 41,-144l-225 -620c-28,-73 -29,-112 -70,-138 -34,-21 -101,-64 -139,-77z"></path>
        <path class="fil0" d="M3531 2216c18,-46 218,-315 257,-390 -123,-151 -74,-133 -187,-141 -99,-6 -199,-16 -300,-21l52 442 -111 -28 -63 138 352 0z"></path>
        <polygon class="fil0" points="1709,44 1726,225 1814,190 "></polygon>
    </g>
</svg>